<svg xmlns="http://www.w3.org/2000/svg" width="500" height="500" viewBox="0 0 500 500" version="1.1">
	<path d="M 230 0.590 C 182.195 6.121, 146.476 18.602, 111.935 41.845 C 51.421 82.564, 13.512 142.444, 2.314 215 C -0.175 231.124, -0.175 268.876, 2.314 285 C 10.496 338.011, 33.385 385.158, 68.977 422.309 C 102.096 456.880, 144.525 481.410, 191.034 492.875 C 212.639 498.201, 223.917 499.461, 250 499.461 C 276.083 499.461, 287.361 498.201, 308.966 492.875 C 343.776 484.294, 378.170 467.420, 406.500 445.025 C 417.940 435.981, 440.245 413.156, 448.856 401.682 C 469.753 373.833, 484.753 342.215, 492.877 308.887 C 496.107 295.637, 499 277.822, 499 271.181 C 499 268.946, 499.450 266.840, 500 266.500 C 500.603 266.127, 501 259.137, 501 248.882 C 501 237.803, 500.652 232.097, 500 232.500 C 499.394 232.874, 499 231.470, 499 228.937 C 499 222.424, 496.161 204.699, 493.004 191.500 C 469.374 92.701, 387.721 18.142, 286 2.481 C 276.028 0.946, 238.020 -0.338, 230 0.590 M 210.580 38.912 C 208.114 41.637, 208.884 46.093, 212.135 47.909 C 214.495 49.227, 215.042 49.202, 217.385 47.667 C 222.088 44.586, 220.096 37, 214.584 37 C 213.333 37, 211.532 37.860, 210.580 38.912 M 256.010 61.256 C 254.091 61.900, 250.603 64.344, 248.260 66.687 L 244 70.947 244 65.974 L 244 61 240 61 L 236 61 236 93 L 236 125 239.931 125 L 243.863 125 244.181 102.750 C 244.539 77.803, 245.124 75.295, 251.780 70.218 C 254.596 68.071, 256.613 67.474, 262.112 67.164 C 271.106 66.655, 276.663 69.610, 280.117 76.736 C 282.264 81.165, 282.455 83.028, 282.834 103.250 L 283.242 125 286.621 125 L 290 125 289.994 102.750 C 289.991 90.512, 289.537 78.872, 288.984 76.882 C 287.456 71.380, 283.965 66.873, 278.720 63.630 C 274.831 61.226, 272.675 60.643, 266.739 60.392 C 262.757 60.223, 257.930 60.612, 256.010 61.256 M 210 93 L 210 125 214 125 L 218 125 218 93 L 218 61 214 61 L 210 61 210 93 M 296.413 203.493 C 293.022 208.668, 297.931 214.719, 303.472 212.195 C 308.944 209.702, 307.022 201, 301 201 C 298.955 201, 297.544 201.767, 296.413 203.493 M 66.500 225.442 C 64.300 226.254, 60.813 228.719, 58.750 230.920 L 55 234.923 55 229.961 L 55 225 51 225 L 47 225 47 257 L 47 289 51 289 L 55 289 55.006 268.250 C 55.009 256.837, 55.476 245.826, 56.044 243.781 C 58.278 235.738, 64.898 231, 73.903 231 C 82.556 231, 87.717 234.149, 91.110 241.500 C 92.723 244.995, 92.959 248.245, 92.978 267.250 L 93 289 96.931 289 L 100.863 289 101.181 266.750 C 101.539 241.803, 102.124 239.295, 108.780 234.218 C 111.579 232.083, 113.602 231.479, 118.890 231.198 C 127.554 230.737, 133.321 233.575, 136.697 239.960 C 138.902 244.130, 139 245.263, 139 266.657 L 139 289 143 289 L 147 289 146.994 266.750 C 146.991 254.512, 146.537 242.872, 145.984 240.882 C 144.443 235.336, 140.953 230.866, 135.560 227.531 C 131.150 224.805, 129.844 224.502, 122.578 224.517 C 112.934 224.538, 108.327 226.549, 102.335 233.356 L 98.427 237.796 96.205 233.935 C 92.852 228.108, 86.398 224.767, 77.644 224.326 C 72.992 224.092, 69.105 224.481, 66.500 225.442 M 247.309 225.643 C 238.915 228.616, 233.122 238.310, 234.950 246.323 C 236.560 253.379, 240.814 256.151, 255.929 259.992 C 266.578 262.698, 269.564 264.255, 271.580 268.155 C 273.533 271.932, 272.851 276.465, 269.849 279.661 C 266.870 282.832, 258.687 284.531, 253.336 283.090 C 248.468 281.780, 243 276.159, 243 272.465 C 243 270.243, 242.593 270, 238.868 270 L 234.737 270 235.289 274.118 C 236.405 282.439, 244.527 288.965, 254.831 289.819 C 270.664 291.132, 282.518 281.893, 280.576 269.753 C 279.799 264.889, 276.848 260.490, 273.046 258.524 C 271.508 257.729, 265.356 255.854, 259.375 254.357 C 246.281 251.082, 243 248.614, 243 242.042 C 243 236.590, 245.222 233.462, 250.539 231.432 C 259.122 228.154, 267.770 231.660, 270.440 239.500 C 271.700 243.200, 272.109 243.523, 275.888 243.807 L 279.973 244.114 279.342 240.807 C 277.224 229.701, 269.516 223.904, 257.101 224.079 C 254.020 224.122, 249.614 224.826, 247.309 225.643 M 338 225.896 C 330.517 228.548, 323.073 236.459, 320.569 244.421 C 317.896 252.919, 318.697 266.680, 322.270 273.623 C 333.224 294.916, 365.025 295.671, 375.557 274.888 L 378.034 270 373.702 270 C 369.760 270, 369.224 270.306, 367.749 273.401 C 362.592 284.215, 344.923 287.140, 335.378 278.759 C 329.052 273.204, 327.500 268.919, 327.500 257 C 327.500 245.669, 328.516 242.421, 333.864 236.661 C 339.376 230.723, 347.456 228.828, 356.297 231.398 C 361.896 233.026, 367.073 237.503, 368.479 241.934 C 369.012 243.614, 369.966 244, 373.581 244 L 378.027 244 376.482 240.304 C 374.010 234.387, 370.622 230.656, 364.883 227.533 C 357.754 223.653, 346.299 222.955, 338 225.896 M 409.703 225.382 C 399.945 229.017, 393.942 235.301, 390.905 245.058 C 388.436 252.989, 388.494 260.151, 391.094 268.569 C 392.830 274.191, 394.170 276.330, 398.942 281.102 C 405.904 288.064, 412.641 290.543, 422.457 289.755 C 430.161 289.137, 435.635 286.357, 440.878 280.401 L 445 275.718 445 282.359 L 445 289 449 289 L 453 289 453 257 L 453 225 449 225 L 445 225 445 231.641 L 445 238.282 440.878 233.599 C 438.611 231.024, 434.899 227.961, 432.628 226.793 C 427.363 224.084, 415.198 223.335, 409.703 225.382 M 164 246.318 C 164 272.288, 164.841 276.216, 171.855 283.019 C 181.487 292.361, 196.679 292.584, 205.747 283.516 L 210 279.263 210 284.132 L 210 289 214 289 L 218 289 218 257 L 218 225 214 225 L 210 225 209.978 246.750 C 209.959 265.755, 209.723 269.005, 208.110 272.500 C 204.717 279.851, 199.556 283, 190.903 283 C 181.898 283, 175.278 278.262, 173.044 270.219 C 172.476 268.174, 172.009 257.163, 172.006 245.750 L 172 225 168 225 L 164 225 164 246.318 M 297 257 L 297 289 301 289 L 305 289 305 257 L 305 225 301 225 L 297 225 297 257 M 411.500 232.886 C 406.257 235.302, 402.695 238.745, 399.876 244.124 C 396.466 250.632, 396.654 262.541, 400.280 269.620 C 404.762 278.372, 411.929 283, 421 283 C 429.974 283, 437.696 278.112, 442.326 269.500 C 444.044 266.304, 444.476 263.791, 444.476 257 C 444.476 247.419, 442.750 242.968, 436.838 237.301 C 430.248 230.984, 419.642 229.136, 411.500 232.886 M 0.411 250 C 0.411 259.625, 0.561 263.563, 0.745 258.750 C 0.928 253.937, 0.928 246.062, 0.745 241.250 C 0.561 236.438, 0.411 240.375, 0.411 250 M 255.592 336.551 C 249.828 342.314, 247.300 354.557, 249.374 366.664 L 250.716 374.498 244.337 381.499 C 240.829 385.350, 236.393 391.598, 234.480 395.384 C 231.487 401.305, 231 403.255, 231 409.319 C 231 418.195, 233.327 423.311, 240.159 429.453 C 245.679 434.416, 249.885 435.986, 257.683 435.994 C 263.480 436.001, 263.135 435.545, 265.074 445.752 C 266.518 453.356, 265.805 458.514, 262.880 461.628 C 260.138 464.547, 254.737 465.657, 251.175 464.034 L 248.503 462.816 251.501 461.263 C 255.220 459.336, 255.965 458.246, 255.985 454.705 C 256.004 451.223, 251.975 447, 248.634 447 C 247.119 447, 245.186 448.179, 243.589 450.077 C 237.293 457.559, 243.372 466.983, 254.500 466.990 C 260.875 466.993, 265.594 464.214, 267.679 459.228 C 269.267 455.432, 269.238 454.926, 266.442 437.500 C 266.035 434.965, 266.454 434.190, 269.147 432.500 C 274.573 429.094, 276.396 425.681, 276.823 418.131 C 277.130 412.687, 276.791 410.511, 275.126 407.247 C 272.466 402.032, 267.993 398.866, 262.395 398.235 C 258.619 397.810, 257.887 397.354, 257.389 395.118 C 257.068 393.678, 256.426 391.003, 255.962 389.172 C 255.205 386.188, 255.567 385.235, 259.479 379.921 C 266.519 370.358, 269.093 359.590, 266.995 348.473 C 264.984 337.815, 259.774 332.369, 255.592 336.551 M 258.217 346.561 C 253.740 349.696, 250.385 360.270, 251.493 367.750 C 252.259 372.921, 253.986 373.217, 257.335 368.750 C 263.658 360.316, 266.240 351.542, 263.589 347.496 C 261.672 344.570, 261.181 344.484, 258.217 346.561 M 247.288 392.701 C 243.955 396.112, 240.051 401.262, 238.614 404.147 C 231.537 418.349, 239.068 432.726, 254.155 433.818 C 257.624 434.069, 260.593 433.807, 261.203 433.197 C 262.541 431.859, 258.111 408, 256.525 408 C 254.477 408, 251.272 410.928, 250.025 413.941 C 248.441 417.763, 249.239 420.967, 252.616 424.343 C 254.077 425.805, 254.708 427, 254.019 427 C 253.329 427, 251.018 425.253, 248.882 423.118 C 245.618 419.853, 245 418.574, 245 415.078 C 245 409.922, 247.943 403.972, 252.104 400.716 C 255.254 398.250, 255.261 398.227, 254.306 392.372 L 253.348 386.500 247.288 392.701 M 259.999 407.750 C 259.997 410.252, 264.438 430.670, 265.158 431.465 C 265.698 432.062, 267.265 431.196, 269.265 429.194 C 272.109 426.349, 272.493 425.325, 272.446 420.729 C 272.381 414.459, 269.994 410.313, 265.328 408.364 C 261.664 406.833, 260 406.641, 259.999 407.750" stroke="none" fill="black" fill-rule="evenodd"/>
</svg>